<svg width="18" height="14" viewBox="0 0 18 14" fill="none" xmlns="http://www.w3.org/2000/svg">
<path d="M16.5 0.0175171H1.5C1.25136 0.0175171 1.0129 0.116287 0.83709 0.292107C0.66127 0.467917 0.5625 0.706377 0.5625 0.955017V11.58C0.5625 11.9944 0.72712 12.3918 1.02015 12.6849C1.31317 12.9779 1.7106 13.1425 2.125 13.1425H15.875C16.2894 13.1425 16.6868 12.9779 16.9799 12.6849C17.2729 12.3918 17.4375 11.9944 17.4375 11.58V0.955017C17.4375 0.706377 17.3387 0.467917 17.1629 0.292107C16.9871 0.116287 16.7486 0.0175171 16.5 0.0175171ZM14.0898 1.89252L9 6.55815L3.91016 1.89252H14.0898ZM2.4375 11.2675V3.08627L8.36641 8.52142C8.53932 8.68002 8.7654 8.76792 9 8.76792C9.2346 8.76792 9.4607 8.68002 9.6336 8.52142L15.5625 3.08627V11.2675H2.4375Z" fill="#9585FF"/>
</svg>
