<svg width="20" height="21" viewBox="0 0 20 21" fill="none" xmlns="http://www.w3.org/2000/svg">
<path d="M17.5 12.6744L13.8211 11.0252L13.807 11.0189C13.5679 10.9158 13.3067 10.8743 13.0474 10.8982C12.7881 10.9221 12.5389 11.0106 12.3227 11.1556C12.2923 11.1759 12.2631 11.1978 12.2352 11.2213L10.4922 12.7056C9.47657 12.1549 8.42735 11.1142 7.87579 10.1111L9.36485 8.34081C9.38879 8.31224 9.41096 8.28223 9.43126 8.25097C9.57249 8.03546 9.65824 7.78837 9.68087 7.53171C9.70349 7.27504 9.6623 7.01676 9.56094 6.77987C9.55854 6.77533 9.55645 6.77064 9.55469 6.76581L7.90626 3.08065C7.77094 2.77247 7.54001 2.51603 7.24763 2.3493C6.95525 2.18257 6.61696 2.1144 6.28282 2.15487C5.14873 2.30385 4.10765 2.86055 3.35402 3.72101C2.60039 4.58146 2.18573 5.68683 2.18751 6.83065C2.18751 13.2064 7.37422 18.3931 13.75 18.3931C14.8938 18.3949 15.9992 17.9803 16.8597 17.2266C17.7201 16.473 18.2768 15.4319 18.4258 14.2978C18.4663 13.9637 18.3981 13.6254 18.2314 13.333C18.0646 13.0406 17.8082 12.8097 17.5 12.6744ZM13.75 16.5181C11.1817 16.515 8.71942 15.4934 6.90333 13.6773C5.08725 11.8612 4.06561 9.39899 4.06251 6.83065C4.06072 6.18338 4.28046 5.55499 4.68522 5.04989C5.08999 4.54478 5.6554 4.19339 6.28751 4.05409L7.75782 7.33534L6.26094 9.11815C6.23675 9.14699 6.21431 9.17725 6.19376 9.20878C6.04622 9.43421 5.95947 9.69396 5.94195 9.96281C5.92443 10.2317 5.97672 10.5005 6.09376 10.7431C6.82969 12.2494 8.3461 13.7556 9.86797 14.4931C10.1123 14.6089 10.3824 14.6594 10.6521 14.6395C10.9217 14.6197 11.1816 14.5302 11.4063 14.3799C11.4365 14.3595 11.4654 14.3373 11.493 14.3134L13.2453 12.8236L16.5266 14.2931C16.3873 14.9252 16.0359 15.4907 15.5308 15.8954C15.0257 16.3002 14.3973 16.5199 13.75 16.5181Z" fill="#9585FF"/>
</svg>
