<svg width="16" height="19" viewBox="0 0 16 19" fill="none" xmlns="http://www.w3.org/2000/svg">
<path d="M8 4.26752C7.32013 4.26752 6.65552 4.46913 6.09023 4.84684C5.52493 5.22456 5.08434 5.76142 4.82416 6.38955C4.56399 7.01767 4.49591 7.70883 4.62855 8.37564C4.76119 9.04245 5.08858 9.65492 5.56932 10.1357C6.05006 10.6164 6.66257 10.9438 7.32938 11.0764C7.99619 11.2091 8.6874 11.141 9.3155 10.8808C9.9436 10.6207 10.4805 10.1801 10.8582 9.61482C11.2359 9.0495 11.4375 8.38489 11.4375 7.70502C11.4365 6.79366 11.074 5.91991 10.4295 5.27548C9.7851 4.63105 8.9114 4.26855 8 4.26752ZM8 9.26752C7.69097 9.26752 7.38887 9.17588 7.13192 9.00419C6.87497 8.8325 6.6747 8.58847 6.55644 8.30296C6.43818 8.01745 6.40723 7.70329 6.46752 7.40019C6.52781 7.0971 6.67663 6.81869 6.89515 6.60017C7.11367 6.38165 7.39208 6.23283 7.69517 6.17254C7.99827 6.11225 8.3124 6.1432 8.5979 6.26146C8.8835 6.37972 9.1275 6.57999 9.2992 6.83694C9.4709 7.09389 9.5625 7.39599 9.5625 7.70502C9.5625 8.11942 9.3979 8.51685 9.1049 8.80987C8.8118 9.1029 8.4144 9.26752 8 9.26752ZM8 0.517517C6.09439 0.519585 4.26742 1.2775 2.91995 2.62497C1.57248 3.97244 0.81457 5.79941 0.8125 7.70502C0.8125 13.7487 7.19063 18.2831 7.4625 18.473C7.62005 18.5832 7.8077 18.6424 8 18.6424C8.1923 18.6424 8.3799 18.5832 8.5375 18.473C9.7455 17.5827 10.8508 16.5608 11.8328 15.4261C14.0273 12.9058 15.1875 10.2339 15.1875 7.70502C15.1854 5.79941 14.4275 3.97244 13.08 2.62497C11.7326 1.2775 9.9056 0.519585 8 0.517517ZM10.4453 14.1667C9.7004 15.0224 8.8822 15.8113 8 16.5245C7.1178 15.8113 6.29958 15.0224 5.55469 14.1667C4.25 12.6558 2.6875 10.3073 2.6875 7.70502C2.6875 6.29606 3.24721 4.9448 4.2435 3.94852C5.23978 2.95223 6.59104 2.39252 8 2.39252C9.409 2.39252 10.7602 2.95223 11.7565 3.94852C12.7528 4.9448 13.3125 6.29606 13.3125 7.70502C13.3125 10.3073 11.75 12.6558 10.4453 14.1667Z" fill="#9585FF"/>
</svg>
