<svg width="96" height="33" viewBox="0 0 96 33" fill="none" xmlns="http://www.w3.org/2000/svg">
<path fill-rule="evenodd" clip-rule="evenodd" d="M11.8038 17.9664L20.7259 26.8885L18.4543 29.1601L11.8038 22.5096L8.94666 25.3668L6.67505 23.0952L11.8038 17.9664Z" fill="black"/>
<path fill-rule="evenodd" clip-rule="evenodd" d="M15.3066 18.2569L24.2287 9.33472L26.5003 11.6063L19.8498 18.2569L22.707 21.114L20.4353 23.3857L15.3066 18.2569Z" fill="black"/>
<path fill-rule="evenodd" clip-rule="evenodd" d="M15.5972 14.7539L6.67505 5.83178L8.94666 3.56018L15.5972 10.2107L18.4543 7.35351L20.7259 9.62512L15.5972 14.7539Z" fill="black"/>
<path fill-rule="evenodd" clip-rule="evenodd" d="M12.0941 14.4635L3.172 23.3856L0.900391 21.114L7.55091 14.4635L4.69373 11.6063L6.96533 9.33472L12.0941 14.4635Z" fill="black"/>
<path d="M49.4126 25.36L43.755 17.5008L41.3486 20.1376V25.36H38.2766V7.20956H41.3486V15.9136L49.1566 7.20956H53.2014L45.8542 15.2224L53.2782 25.36H49.4126ZM53.5596 21.9808C53.5596 19.7536 55.198 18.5248 57.3228 18.2176L60.5228 17.7312C61.2396 17.6288 61.4444 17.2704 61.4444 16.8352C61.4444 15.7856 60.7276 14.9408 59.0892 14.9408C57.5276 14.9408 56.6572 15.9392 56.5292 17.1936L53.8156 16.5792C54.046 14.4288 55.9916 12.5088 59.0636 12.5088C62.9036 12.5088 64.3628 14.6848 64.3628 17.168V23.3632C64.3628 24.4896 64.4908 25.232 64.5164 25.36H61.7516C61.726 25.2832 61.6236 24.7712 61.6236 23.7728C61.0348 24.72 59.806 25.744 57.7836 25.744C55.1724 25.744 53.5596 23.952 53.5596 21.9808ZM58.3468 23.4144C60.0108 23.4144 61.4444 22.6208 61.4444 20.1888V19.6256L58.1932 20.112C57.2716 20.2656 56.5292 20.7776 56.5292 21.8016C56.5292 22.6464 57.1692 23.4144 58.3468 23.4144ZM69.1564 19.088C69.1564 21.4688 70.4876 23.056 72.51 23.056C74.4556 23.056 75.8124 21.4432 75.8124 19.0624C75.8124 16.6816 74.4812 15.1968 72.5356 15.1968C70.59 15.1968 69.1564 16.7072 69.1564 19.088ZM78.6796 6.82556V23.0816C78.6796 24.208 78.782 25.1552 78.8076 25.36H75.966C75.9148 25.0784 75.838 24.2592 75.838 23.7472C75.2492 24.7968 73.9436 25.6672 72.1772 25.6672C68.5932 25.6672 66.1868 22.8512 66.1868 19.088C66.1868 15.504 68.6188 12.56 72.126 12.56C74.302 12.56 75.4028 13.5584 75.7868 14.352V6.82556H78.6796ZM89.8318 23.9776C89.2174 25.104 87.7582 25.7184 86.299 25.7184C83.3294 25.7184 81.5886 23.5168 81.5886 20.752V12.8928H84.5582V20.2144C84.5582 21.7504 85.275 23.056 87.067 23.056C88.7822 23.056 89.6782 21.904 89.6782 20.2656V12.8928H92.6478V23.0816C92.6478 24.1056 92.7246 24.8992 92.7758 25.36H89.9342C89.883 25.0784 89.8318 24.4896 89.8318 23.9776Z" fill="black"/>
</svg>
