<svg width="114" height="27" viewBox="0 0 114 27" fill="none" xmlns="http://www.w3.org/2000/svg">
<path d="M10.2611 6.26479C10.4442 6.18897 10.6401 6.32726 10.6401 6.52539V15.0669C10.6401 15.5381 11.0222 15.9202 11.4935 15.9202H14.9068C15.3781 15.9202 15.7601 15.5381 15.7601 15.0669V6.52539C15.7601 6.32726 15.9561 6.18897 16.1391 6.26479C16.8075 6.54165 17.4321 6.911 17.9951 7.36093C18.3632 7.65517 18.9009 7.65945 19.2341 7.32621L21.6477 4.91262C21.9809 4.57937 21.9827 4.03667 21.628 3.72636C20.5802 2.80967 19.3883 2.06877 18.0985 1.53453C16.5455 0.891262 14.881 0.560181 13.2001 0.560181C11.5192 0.560181 9.85478 0.891264 8.30181 1.53453C7.01202 2.06878 5.82012 2.80967 4.77226 3.72637C4.41755 4.03667 4.41934 4.57937 4.75259 4.91262L7.16618 7.32621C7.49943 7.65946 8.03708 7.65517 8.40523 7.36093C8.96816 6.91101 9.59275 6.54165 10.2611 6.26479Z" fill="black"/>
<path d="M21.7335 13.3602C21.2622 13.3602 20.885 13.7435 20.8328 14.2118C20.6405 15.9354 19.8688 17.5527 18.6307 18.7908C17.1904 20.2311 15.237 21.0402 13.2001 21.0402C11.1633 21.0402 9.20983 20.2311 7.76955 18.7908C6.53145 17.5527 5.75973 15.9354 5.56747 14.2118C5.51522 13.7435 5.13808 13.3602 4.6668 13.3602H1.25347C0.782184 13.3602 0.397169 13.7428 0.42855 14.213C0.634309 17.2963 1.9505 20.2125 4.14917 22.4112C6.54963 24.8116 9.80536 26.1602 13.2001 26.1602C16.5949 26.1602 19.8506 24.8116 22.2511 22.4112C24.4498 20.2125 25.766 17.2963 25.9717 14.213C26.0031 13.7428 25.6181 13.3602 25.1468 13.3602H21.7335Z" fill="black"/>
<path d="M36.1128 16.8816V15.704L39.108 15.0896V16.7792C39.108 18.904 40.3112 19.8512 41.8984 19.8512C43.5368 19.8512 44.5608 18.7504 44.5608 16.9072V4.20956H47.6328V16.8304C47.6328 20.056 45.38 22.744 41.924 22.744C38.3656 22.744 36.1128 20.4144 36.1128 16.8816ZM49.9348 18.9808C49.9348 16.7536 51.5732 15.5248 53.698 15.2176L56.898 14.7312C57.6148 14.6288 57.8196 14.2704 57.8196 13.8352C57.8196 12.7856 57.1028 11.9408 55.4644 11.9408C53.9028 11.9408 53.0324 12.9392 52.9044 14.1936L50.1908 13.5792C50.4212 11.4288 52.3668 9.50876 55.4388 9.50876C59.2788 9.50876 60.738 11.6848 60.738 14.168V20.3632C60.738 21.4896 60.866 22.232 60.8916 22.36H58.1268C58.1012 22.2832 57.9988 21.7712 57.9988 20.7728C57.41 21.72 56.1812 22.744 54.1588 22.744C51.5476 22.744 49.9348 20.952 49.9348 18.9808ZM54.722 20.4144C56.386 20.4144 57.8196 19.6208 57.8196 17.1888V16.6256L54.5684 17.112C53.6468 17.2656 52.9044 17.7776 52.9044 18.8016C52.9044 19.6464 53.5444 20.4144 54.722 20.4144ZM66.5038 22.36H63.5598V9.89276H66.4014V11.48C67.1182 10.2 68.6798 9.53436 70.0878 9.53436C71.7262 9.53436 73.1598 10.2768 73.8254 11.736C74.7982 10.0976 76.2574 9.53436 77.8702 9.53436C80.123 9.53436 82.2734 10.968 82.2734 14.2704V22.36H79.4062V14.7568C79.4062 13.2976 78.6638 12.1968 76.9998 12.1968C75.4382 12.1968 74.4142 13.4256 74.4142 14.9616V22.36H71.4958V14.7568C71.4958 13.3232 70.779 12.1968 69.0894 12.1968C67.5022 12.1968 66.5038 13.3744 66.5038 14.9616V22.36ZM88.0346 22.36H85.1418V3.82556H88.0602V11.4288C88.6234 10.456 90.057 9.55996 91.977 9.55996C95.7146 9.55996 97.737 12.4016 97.737 16.0624C97.737 19.8256 95.5098 22.6672 91.8746 22.6672C90.1082 22.6672 88.7514 21.8992 88.0346 20.696V22.36ZM94.7418 16.088C94.7418 13.6048 93.3594 12.1968 91.3882 12.1968C89.4938 12.1968 88.0346 13.6048 88.0346 16.088C88.0346 18.5456 89.4938 20.0304 91.3882 20.0304C93.3338 20.0304 94.7418 18.5456 94.7418 16.088ZM105.302 20.0816C107.145 20.0816 108.784 18.7248 108.784 16.1136C108.784 13.528 107.145 12.1968 105.302 12.1968C103.484 12.1968 101.82 13.528 101.82 16.1136C101.82 18.6992 103.484 20.0816 105.302 20.0816ZM105.302 9.50876C109.04 9.50876 111.779 12.2992 111.779 16.1136C111.779 19.9536 109.04 22.744 105.302 22.744C101.59 22.744 98.851 19.9536 98.851 16.1136C98.851 12.2992 101.59 9.50876 105.302 9.50876Z" fill="black"/>
</svg>
