<svg width="94" height="33" viewBox="0 0 94 33" fill="none" xmlns="http://www.w3.org/2000/svg">
<path d="M13.1893 12.0935L8.92633 7.82678L0.400391 16.3601L8.92634 24.8934L13.1893 20.6268L8.92632 16.3601L13.1893 12.0935Z" fill="black"/>
<path d="M17.4744 7.82678L13.2114 12.0935L17.4744 16.3601L13.2114 20.6268L17.4744 24.8934L26.0003 16.3601L17.4744 7.82678Z" fill="black"/>
<path d="M44.2535 21.3408L49.3479 7.20958H52.5991L45.7383 25.36H42.6151L35.8567 7.20958H39.1847L44.2535 21.3408ZM51.7597 21.9808C51.7597 19.7536 53.3981 18.5248 55.5229 18.2176L58.7229 17.7312C59.4397 17.6288 59.6445 17.2704 59.6445 16.8352C59.6445 15.7856 58.9277 14.9408 57.2893 14.9408C55.7277 14.9408 54.8573 15.9392 54.7293 17.1936L52.0157 16.5792C52.2461 14.4288 54.1917 12.5088 57.2637 12.5088C61.1037 12.5088 62.5629 14.6848 62.5629 17.168V23.3632C62.5629 24.4896 62.6909 25.232 62.7165 25.36H59.9517C59.9261 25.2832 59.8237 24.7712 59.8237 23.7728C59.2349 24.72 58.0061 25.744 55.9837 25.744C53.3725 25.744 51.7597 23.952 51.7597 21.9808ZM56.5469 23.4144C58.2109 23.4144 59.6445 22.6208 59.6445 20.1888V19.6256L56.3933 20.112C55.4717 20.2656 54.7293 20.7776 54.7293 21.8016C54.7293 22.6464 55.3693 23.4144 56.5469 23.4144ZM72.6807 12.816V15.8368C72.3479 15.7856 72.0151 15.76 71.7079 15.76C69.4039 15.76 68.3543 17.0912 68.3543 19.4208V25.36H65.3847V12.8928H68.2775V14.8896C68.8663 13.5328 70.2487 12.7392 71.8871 12.7392C72.2455 12.7392 72.5527 12.7904 72.6807 12.816ZM77.3357 25.36H74.3917V12.8928H77.3357V25.36ZM73.9309 8.51518C73.9309 7.43998 74.8013 6.56958 75.8509 6.56958C76.9261 6.56958 77.7965 7.43998 77.7965 8.51518C77.7965 9.59038 76.9261 10.4352 75.8509 10.4352C74.8013 10.4352 73.9309 9.59038 73.9309 8.51518ZM85.8771 23.0816C87.7203 23.0816 89.3587 21.7248 89.3587 19.1136C89.3587 16.528 87.7203 15.1968 85.8771 15.1968C84.0595 15.1968 82.3955 16.528 82.3955 19.1136C82.3955 21.6992 84.0595 23.0816 85.8771 23.0816ZM85.8771 12.5088C89.6147 12.5088 92.3539 15.2992 92.3539 19.1136C92.3539 22.9536 89.6147 25.744 85.8771 25.744C82.1651 25.744 79.4259 22.9536 79.4259 19.1136C79.4259 15.2992 82.1651 12.5088 85.8771 12.5088Z" fill="black"/>
</svg>
