<svg width="104" height="33" viewBox="0 0 104 33" fill="none" xmlns="http://www.w3.org/2000/svg">
<path d="M11.1406 14.6535C11.1406 14.1822 11.5226 13.8002 11.9939 13.8002H25.6473C26.1185 13.8002 26.5006 14.1822 26.5006 14.6535V16.7869C26.5006 17.2581 26.1185 17.6402 25.6473 17.6402H18.7301C18.35 17.6402 18.1596 18.0998 18.4284 18.3686L25.8972 25.8373C26.2304 26.1706 26.2304 26.7109 25.8972 27.0441L24.3845 28.5568C24.0513 28.89 23.511 28.89 23.1777 28.5568L15.709 21.088C15.4402 20.8192 14.9806 21.0096 14.9806 21.3897V28.3069C14.9806 28.7781 14.5985 29.1602 14.1273 29.1602H11.9939C11.5226 29.1602 11.1406 28.7781 11.1406 28.3069V14.6535Z" fill="black"/>
<path d="M13.0497 3.56018C12.7022 3.56018 12.4204 3.84194 12.4204 4.18951V8.69084C12.4204 9.03841 12.7022 9.32017 13.0497 9.32017H15.6311C15.9786 9.32017 16.2604 9.03841 16.2604 8.69084V4.18951C16.2604 3.84194 15.9786 3.56018 15.6311 3.56018H13.0497Z" fill="black"/>
<path d="M6.03106 15.0802C6.37863 15.0802 6.66039 15.362 6.66039 15.7095V18.2909C6.66039 18.6384 6.37863 18.9202 6.03106 18.9202H1.52972C1.18215 18.9202 0.900391 18.6384 0.900391 18.2909V15.7095C0.900391 15.362 1.18215 15.0802 1.52972 15.0802H6.03106Z" fill="black"/>
<path d="M9.09842 9.03888C9.41532 9.35577 9.30837 9.89801 8.93383 10.1441C8.3572 10.5229 7.86307 11.0171 7.4842 11.5937C7.2381 11.9682 6.69586 12.0752 6.37897 11.7583L2.62525 8.00462C2.37948 7.75885 2.37948 7.36037 2.62525 7.1146L4.45469 5.28516C4.70046 5.03939 5.09894 5.03939 5.34471 5.28516L9.09842 9.03888Z" fill="black"/>
<path d="M46.3406 25.744C41.451 25.744 37.1758 22.2112 37.1758 16.2976C37.1758 10.384 41.6046 6.82556 46.315 6.82556C50.923 6.82556 53.6622 9.53916 54.4814 12.7136L51.5886 13.6864C51.051 11.4848 49.3614 9.71836 46.315 9.71836C43.3198 9.71836 40.3246 11.8944 40.3246 16.2976C40.3246 20.5472 43.243 22.8 46.3406 22.8C49.387 22.8 51.1278 20.8544 51.7422 18.8064L54.5582 19.728C53.739 22.8 50.9742 25.744 46.3406 25.744ZM60.1164 30.4032H56.942L59.9372 23.8752L54.6124 12.8928H57.966L61.55 20.7776L64.9036 12.8928H68.0524L60.1164 30.4032ZM76.7556 12.816V15.8368C76.4228 15.7856 76.09 15.76 75.7828 15.76C73.4788 15.76 72.4292 17.0912 72.4292 19.4208V25.36H69.4596V12.8928H72.3524V14.8896C72.9412 13.5328 74.3236 12.7392 75.962 12.7392C76.3204 12.7392 76.6276 12.7904 76.7556 12.816ZM86.6068 23.9776C85.9924 25.104 84.5332 25.7184 83.074 25.7184C80.1044 25.7184 78.3636 23.5168 78.3636 20.752V12.8928H81.3332V20.2144C81.3332 21.7504 82.05 23.056 83.842 23.056C85.5572 23.056 86.4532 21.904 86.4532 20.2656V12.8928H89.4228V23.0816C89.4228 24.1056 89.4996 24.8992 89.5508 25.36H86.7092C86.658 25.0784 86.6068 24.4896 86.6068 23.9776ZM91.3978 21.9808L93.9834 21.264C94.0858 22.3904 94.9306 23.3888 96.5178 23.3888C97.7466 23.3888 98.3866 22.7232 98.3866 21.9552C98.3866 21.2896 97.9258 20.7776 96.9274 20.5728L95.0842 20.1632C92.8826 19.6768 91.7306 18.2432 91.7306 16.528C91.7306 14.352 93.7274 12.5088 96.313 12.5088C99.7946 12.5088 100.921 14.7616 101.126 15.9904L98.617 16.7072C98.5146 15.9904 97.977 14.8384 96.313 14.8384C95.2634 14.8384 94.521 15.504 94.521 16.272C94.521 16.9376 95.0074 17.424 95.7754 17.5776L97.6698 17.9616C100.025 18.4736 101.254 19.9072 101.254 21.7504C101.254 23.6448 99.7178 25.744 96.5434 25.744C92.9338 25.744 91.5514 23.3888 91.3978 21.9808Z" fill="black"/>
</svg>
