<svg width="116" height="28" viewBox="0 0 116 28" fill="none" xmlns="http://www.w3.org/2000/svg">
<path d="M5.16699 3.62019C5.16699 2.20634 6.31315 1.06018 7.72699 1.06018H11.5894C13.0033 1.06018 14.1494 2.20634 14.1494 3.62019V6.72875C14.1494 8.1426 15.2956 9.28874 16.7094 9.28874H19.6737C21.0875 9.28874 22.2337 10.4349 22.2337 11.8488V15.8716C22.2337 17.2855 21.0875 18.4316 19.6737 18.4316H16.7095C15.2956 18.4316 14.1495 19.5778 14.1495 20.9916V24.1002C14.1495 25.514 13.0033 26.6602 11.5894 26.6602H7.727C6.31315 26.6602 5.167 25.514 5.167 24.1002V20.0773C5.167 18.6635 6.31315 17.5173 7.727 17.5173H10.6912C12.1051 17.5173 13.2512 16.3712 13.2512 14.9573V12.7631C13.2512 11.3492 12.1051 10.203 10.6912 10.203H7.72699C6.31314 10.203 5.16699 9.05689 5.16699 7.64304V3.62019Z" fill="black"/>
<path d="M50.6927 22.86L48.9775 18.3032H41.2975L39.6079 22.86H36.3567L43.4223 4.70959H46.9807L54.0463 22.86H50.6927ZM45.1375 8.03759L42.3727 15.4616H47.9023L45.1375 8.03759ZM54.3519 19.4808L56.9375 18.764C57.0399 19.8904 57.8847 20.8888 59.4719 20.8888C60.7007 20.8888 61.3407 20.2232 61.3407 19.4552C61.3407 18.7896 60.8799 18.2776 59.8815 18.0728L58.0383 17.6632C55.8367 17.1768 54.6847 15.7432 54.6847 14.028C54.6847 11.852 56.6815 10.0088 59.2671 10.0088C62.7487 10.0088 63.8751 12.2616 64.0799 13.4904L61.5711 14.2072C61.4687 13.4904 60.9311 12.3384 59.2671 12.3384C58.2175 12.3384 57.4751 13.004 57.4751 13.772C57.4751 14.4376 57.9615 14.924 58.7295 15.0776L60.6239 15.4616C62.9791 15.9736 64.2079 17.4072 64.2079 19.2504C64.2079 21.1448 62.6719 23.244 59.4975 23.244C55.8879 23.244 54.5055 20.8888 54.3519 19.4808ZM69.3287 27.724H66.3847V10.3928H69.2519V12.0824C69.8663 11.0072 71.2999 10.1112 73.2199 10.1112C76.9063 10.1112 78.9799 12.9272 78.9799 16.6136C78.9799 20.3512 76.7015 23.1672 73.1175 23.1672C71.3255 23.1672 69.9687 22.3992 69.3287 21.452V27.724ZM76.0103 16.6136C76.0103 14.284 74.6535 12.748 72.6567 12.748C70.7111 12.748 69.3031 14.284 69.3031 16.6136C69.3031 18.9944 70.7111 20.5304 72.6567 20.5304C74.6279 20.5304 76.0103 18.9944 76.0103 16.6136ZM83.1403 15.2568H89.2587C89.2075 13.7976 88.2347 12.492 86.1867 12.492C84.3179 12.492 83.2427 13.9256 83.1403 15.2568ZM89.5915 18.508L92.1003 19.3016C91.4347 21.4776 89.4635 23.244 86.4683 23.244C83.0891 23.244 80.0939 20.7864 80.0939 16.5624C80.0939 12.62 83.0123 10.0088 86.1611 10.0088C90.0011 10.0088 92.2539 12.5432 92.2539 16.4856C92.2539 16.972 92.2027 17.3816 92.1771 17.4328H83.0635C83.1403 19.3272 84.6251 20.684 86.4683 20.684C88.2603 20.684 89.1819 19.7368 89.5915 18.508ZM99.7509 12.748C97.9333 12.748 96.3205 14.1048 96.3205 16.6136C96.3205 19.1224 97.9333 20.5304 99.8021 20.5304C101.748 20.5304 102.644 19.1736 102.925 18.2264L105.536 19.1736C104.948 21.1192 103.079 23.244 99.8021 23.244C96.1413 23.244 93.3509 20.4024 93.3509 16.6136C93.3509 12.7736 96.1413 10.0088 99.7253 10.0088C103.079 10.0088 104.922 12.108 105.434 14.1048L102.772 15.0776C102.49 13.9768 101.645 12.748 99.7509 12.748ZM111.169 6.57839V10.3928H113.754V13.0296H111.169V18.8152C111.169 19.916 111.655 20.3768 112.756 20.3768C113.166 20.3768 113.652 20.3 113.78 20.2744V22.732C113.601 22.8088 113.038 23.0136 111.962 23.0136C109.658 23.0136 108.225 21.6312 108.225 19.3016V13.0296H105.921V10.3928H106.561C107.892 10.3928 108.481 9.54799 108.481 8.44719V6.57839H111.169Z" fill="black"/>
</svg>
