<svg width="85" height="29" viewBox="0 0 85 29" fill="none" xmlns="http://www.w3.org/2000/svg">
<mask id="mask0_16001_1137" style="mask-type:luminance" maskUnits="userSpaceOnUse" x="0" y="0" width="85" height="29">
<path d="M84.7591 0.969971H0V28.97H84.7591V0.969971Z" fill="white"/>
</mask>
<g mask="url(#mask0_16001_1137)">
<path fill-rule="evenodd" clip-rule="evenodd" d="M7.862 19.2443C5.59531 19.2443 3.94486 17.4766 3.94486 14.9114C3.94486 12.3461 5.59531 10.6061 7.862 10.6061C10.1287 10.6061 11.8069 12.3739 11.8069 14.9114C11.8069 17.4489 10.1564 19.2443 7.862 19.2443ZM11.6661 7.86815C11.6543 8.2954 11.6729 8.72294 11.7216 9.14757H11.6107C10.875 7.898 9.1201 7.12822 7.19031 7.12822C3.02155 7.12822 0 10.3524 0 14.9668C0 19.5812 2.90854 22.8075 7.02186 22.8075C9.15421 22.8075 10.9667 21.9226 11.89 20.3553H12.003C11.9594 20.8003 11.9388 21.2473 11.9412 21.6944V22.3512H15.5236V0.969971H11.6661V7.86815Z" fill="#201E28"/>
<path fill-rule="evenodd" clip-rule="evenodd" d="M24.7353 19.272C22.4708 19.272 20.8971 17.4765 20.8971 14.9113C20.8971 12.3461 22.4644 10.6061 24.7353 10.6061C27.0063 10.6061 28.5736 12.3738 28.5736 14.9113C28.5736 17.4488 27.034 19.272 24.7353 19.272ZM24.7353 7.12817C20.2318 7.12817 16.9863 10.4056 16.9863 14.9668C16.9863 19.5279 20.2254 22.8074 24.7353 22.8074C29.2453 22.8074 32.5142 19.5001 32.5142 14.9668C32.5142 10.4333 29.2346 7.12817 24.7353 7.12817Z" fill="#201E28"/>
<path fill-rule="evenodd" clip-rule="evenodd" d="M46.2423 9.26698C46.2467 8.70504 46.219 8.14331 46.1592 7.58455H42.4084C42.4659 8.35433 42.4659 8.75308 42.4659 9.2094C42.4659 11.8024 40.7878 13.3142 38.5488 13.3142C38.3245 13.3192 38.1001 13.3092 37.8771 13.2844V0.969971H33.96V22.3512H37.8771V16.6492C38.1564 16.677 38.4379 16.677 38.6895 16.677C38.9966 16.677 39.3037 16.677 39.5851 16.6492L42.6898 22.3512H47.0825L43.1654 15.5383C45.4043 14.1416 46.2423 11.6616 46.2423 9.26698Z" fill="#201E28"/>
<path fill-rule="evenodd" clip-rule="evenodd" d="M50.9426 13.6852C51.3329 11.7661 52.6208 10.6061 54.5229 10.6061C56.3418 10.6061 57.5999 11.8322 57.8813 13.6852H50.9426ZM54.6082 7.12817C50.1025 7.12817 46.8848 10.3779 46.8848 14.9668C46.8848 19.5001 50.0833 22.8074 54.6636 22.8074C57.1244 22.8074 59.1117 21.9225 60.5937 19.9565L58.3291 17.5341C57.376 18.7581 56.3141 19.272 54.6913 19.272C52.6763 19.272 51.3606 18.161 50.9426 16.2227H61.6044C61.6856 15.8091 61.7234 15.3882 61.7174 14.9668C61.7174 10.4056 58.8644 7.12817 54.6124 7.12817H54.6082Z" fill="#201E28"/>
<path fill-rule="evenodd" clip-rule="evenodd" d="M71.7603 7.58032V16.6557C71.7603 18.0246 70.7815 18.9352 69.5234 18.9352C68.2078 18.9352 67.2567 18.0246 67.2567 16.6557V7.58032H63.3311V16.6557C63.3311 20.0205 65.5423 22.4706 68.5639 22.4706H68.7387H68.7643H68.8539H68.9434C71.4809 22.4002 72.2464 20.8607 72.3552 20.6155C72.368 20.7924 72.3723 20.9673 72.3723 21.1421C72.3723 23.4238 70.8903 25.1339 68.3442 25.1339C67.8964 25.1339 67.5041 25.1339 66.7492 25.0764V28.8954C67.2972 28.957 67.8483 28.9855 68.3997 28.9807C70.7453 28.9807 73.1826 28.1278 74.5537 25.8461C75.1145 24.9228 75.6454 23.9505 75.6454 22.1977C75.6731 21.9119 75.6731 21.5985 75.6731 21.285V7.58032H71.7603Z" fill="#201E28"/>
<path d="M82.4887 22.1603C83.743 22.1603 84.7597 21.1435 84.7597 19.8893C84.7597 18.6351 83.743 17.6183 82.4887 17.6183C81.2345 17.6183 80.2178 18.6351 80.2178 19.8893C80.2178 21.1435 81.2345 22.1603 82.4887 22.1603Z" fill="#201E28"/>
</g>
</svg>
