<svg width="21" height="20" viewBox="0 0 21 20" fill="none" xmlns="http://www.w3.org/2000/svg">
<mask id="mask0_16002_1986" style="mask-type:luminance" maskUnits="userSpaceOnUse" x="2" y="2" width="16" height="16">
<path d="M17.73 2.5H2.72998V17.5H17.73V2.5Z" fill="white"/>
</mask>
<g mask="url(#mask0_16002_1986)">
<path d="M6.05428 11.5646L5.53216 13.5138L3.62379 13.5542C3.05347 12.4964 2.72998 11.2861 2.72998 9.99995C2.72998 8.75627 3.03244 7.58346 3.56857 6.55078L5.26796 6.86226L6.01221 8.55105C5.85644 9.00517 5.77154 9.49267 5.77154 9.99995C5.7716 10.5505 5.87132 11.078 6.05428 11.5646Z" fill="#FBBB00"/>
<path d="M17.5986 8.59863C17.6847 9.05232 17.7296 9.52087 17.7296 9.99972C17.7296 10.5367 17.6732 11.0604 17.5656 11.5657C17.2005 13.2849 16.2465 14.7861 14.925 15.8485L12.7846 15.7389L12.4818 13.8482C13.3587 13.3339 14.044 12.5291 14.405 11.5657H10.3946V8.59863H14.4635H17.5986Z" fill="#518EF8"/>
<path d="M14.9251 15.8481C13.6398 16.8812 12.0075 17.4997 10.2302 17.4997C7.37401 17.4997 4.89078 15.9033 3.62402 13.554L6.05451 11.5645C6.68788 13.2548 8.3185 14.4581 10.2302 14.4581C11.0519 14.4581 11.8217 14.236 12.4822 13.8482L14.9251 15.8481Z" fill="#28B446"/>
<path d="M15.017 4.22663L12.5873 6.21577C11.9037 5.78844 11.0955 5.54159 10.2297 5.54159C8.27479 5.54159 6.61367 6.80009 6.01203 8.55107L3.56877 6.5508C4.81699 4.14422 7.33112 2.5 10.2297 2.5C12.0495 2.5 13.7181 3.14822 15.017 4.22663Z" fill="#F14336"/>
</g>
</svg>
